<?xml version="1.0" encoding="UTF-8"?>
<svg id="Layer_2" data-name="Layer 2" xmlns="http://www.w3.org/2000/svg" viewBox="0 0 291.02 291.02">
  <defs>
    <style>
      .cls-1 {
        fill: none;
        stroke: #1a0089;
        stroke-miterlimit: 10;
        stroke-width: 7px;
      }
    </style>
  </defs>
  <g id="Layer_1-2" data-name="Layer 1">
    <circle class="cls-1" cx="145.51" cy="145.51" r="142.01"/>
    <line class="cls-1" x1="145.51" y1="3.5" x2="145.51" y2="287.31"/>
    <line class="cls-1" x1="3.5" y1="145.51" x2="287.52" y2="145.51"/>
    <path class="cls-1" d="m43.09,47.15c17.15,9.08,53.57,25.43,102.42,25.35,48.75-.08,85.07-16.47,102.19-25.59"/>
    <path class="cls-1" d="m43.2,243.87c17.15-9.08,53.57-25.43,102.42-25.35,48.75.08,85.07,16.47,102.19,25.59"/>
    <path class="cls-1" d="m145.51,3.5c-6.7,4.87-72.33,54.39-72.27,142.01.05,87.49,65.54,136.9,72.27,141.8"/>
    <path class="cls-1" d="m145.51,3.45c6.7,4.87,72.33,54.39,72.27,142.01-.05,87.49-65.54,136.9-72.27,141.8"/>
  </g>
</svg>